SplineFontDB: 3.0
FontName: Wave
FullName: Wave
FamilyName: Wave
Weight: Regular
Copyright: Created by Subhraman Sarkar,2017, with FontForge 2.0 (http://fontforge.sf.net)
UComments: "2017-3-30: Created." 
Version: 001.000
ItalicAngle: 0
UnderlinePosition: -99.6094
UnderlineWidth: 49.8047
Ascent: 800
Descent: 200
LayerCount: 2
Layer: 0 0 "Back"  1
Layer: 1 0 "Fore"  0
XUID: [1021 954 812889790 4693418]
FSType: 0
OS2Version: 0
OS2_WeightWidthSlopeOnly: 0
OS2_UseTypoMetrics: 1
CreationTime: 1490889787
ModificationTime: 1522757678
OS2TypoAscent: 0
OS2TypoAOffset: 1
OS2TypoDescent: 0
OS2TypoDOffset: 1
OS2TypoLinegap: 90
OS2WinAscent: 0
OS2WinAOffset: 1
OS2WinDescent: 0
OS2WinDOffset: 1
HheadAscent: 0
HheadAOffset: 1
HheadDescent: 0
HheadDOffset: 1
MarkAttachClasses: 1
DEI: 91125
Encoding: UnicodeFull
UnicodeInterp: none
NameList: Adobe Glyph List
DisplaySize: -48
AntiAlias: 1
FitToEm: 1
WinInfo: 0 27 10
BeginPrivate: 0
EndPrivate
Grid
-1000 804.3 m 0
 2000 804.3 l 0
EndSplineSet
BeginChars: 1114112 24

StartChar: o
Encoding: 111 111 0
Width: 911
VWidth: -190
Flags: W
HStem: -220 54<414.188 671.427> -88 52<113.542 226.908> 382 52<610.375 700.182> 390 52<404.762 492>
VStem: 206 58<15.4895 224.073> 492 58<297.909 388.789> 820 56<-15.5083 244.001>
LayerCount: 2
Fore
SplineSet
540 -220 m 4xee
 396 -220 302 -162 250 -68 c 5
 224 -80 198 -88 172 -88 c 4
 120 -88 66 -58 24 4 c 4
 20 10 20 14 20 18 c 4
 20 34 36 42 52 42 c 4
 62 42 70 40 76 30 c 4
 108 -18 136 -36 170 -36 c 4
 190 -36 206 -30 228 -20 c 5
 214 22 206 64 206 108 c 4
 206 272 300 442 496 442 c 4xde
 538 442 550 406 550 378 c 4
 550 276 432 58 298 -40 c 5
 340 -122 420 -166 544 -166 c 4
 728 -166 796 -68 814 44 c 4
 818 70 820 92 820 118 c 4
 820 244 766 364 634 382 c 4
 618 384 610 396 610 408 c 4
 610 422 620 434 638 434 c 6
 642 434 l 5
 812 412 876 266 876 118 c 4
 876 90 874 64 870 36 c 4
 848 -100 750 -220 540 -220 c 4xee
492 390 m 5
 344 390 264 242 264 106 c 4
 264 74 266 46 276 14 c 5
 394 110 492 316 492 380 c 2
 492 390 l 5
EndSplineSet
Validated: 1
EndChar

StartChar: n
Encoding: 110 110 1
Width: 861
VWidth: -215
Flags: W
HStem: -219 46<751.804 825.862> 353 54<27.0213 146.539> 397 64<384.912 547.052>
VStem: 162 46<-156.001 118.969> 246 46<-151.91 135.125> 656 54<-106.961 307.469>
LayerCount: 2
Fore
SplineSet
236 283 m 5xdc
 278 365 344 461 460 461 c 4
 486 461 514 457 538 445 c 5
 626 415 698 333 708 241 c 4
 710 221 712 193 712 157 c 4
 712 113 710 59 710 13 c 4
 710 -53 712 -107 724 -107 c 5
 738 -145 764 -173 804 -173 c 4
 816 -173 826 -185 826 -197 c 4
 826 -209 814 -219 802 -219 c 4
 746 -217 694 -183 672 -129 c 5
 672 -127 l 5
 660 -85 656 -39 656 3 c 4
 656 59 662 115 662 167 c 4
 662 193 660 217 656 241 c 5
 656 243 l 5
 648 317 610 355 538 379 c 5
 512 385 l 5
 496 393 476 397 458 397 c 4xbc
 416 397 374 375 342 343 c 5
 306 303 280 289 276 215 c 5
 286 145 292 61 292 -13 c 4
 292 -67 290 -117 276 -151 c 5
 268 -175 254 -211 222 -211 c 4
 214 -211 206 -207 202 -203 c 4
 170 -173 162 -127 162 -83 c 4
 162 -39 170 7 172 43 c 5
 172 45 l 5
 178 93 198 195 198 239 c 4
 198 277 158 353 86 353 c 4
 68 353 52 349 30 339 c 5
 30.1538 339.154 30.2249 339.533 30.2249 340.104 c 0
 30.2249 346.965 20 381.615 20 389 c 4
 20 401 90 407 94 407 c 4
 182.388 407 236.054 335.628 236.054 285.71 c 0
 236.054 284.799 236.036 283.896 236 283 c 5xdc
234 137 m 5
 218 73 208 -5 208 -81 c 4
 208 -111 212 -137 222 -157 c 5
 234 -131 246 -67 246 7 c 4
 246 49 242 95 234 137 c 5
EndSplineSet
Validated: 1
EndChar

StartChar: m
Encoding: 109 109 2
Width: 1121
VWidth: -207
Flags: W
HStem: -229 46<1009.8 1085.86> -213 668<228 414> 369 54<27.0213 146.539> 383 66<655.484 809.601>
VStem: 164 48<-155.863 149.592> 248 48<-156.353 151.486> 592 52<29.6217 314.443> 914 54<-125.999 157.508> 922 48<-9.41536 270.53>
LayerCount: 2
Fore
SplineSet
234 153 m 5x0e
 218 91 212 27 212 -53 c 4
 212 -95 216 -133 228 -157 c 5
 240 -133 248 -75 248 -5 c 4
 248 45 244 103 234 153 c 5x0e
236 299 m 5
 270 365 316 455 414 455 c 4x4e80
 430 455 448 453 472 451 c 5
 536 437 558 405 580 377 c 5
 584 379 l 5
 626 421 678 449 732 449 c 4
 754 449 774 445 796 435 c 5
 884 405 958 323 968 231 c 4x1f
 970 213 970 189 970 159 c 4x1e80
 970 107 968 41 968 -11 c 4
 968 -69 972 -117 982 -117 c 5
 996 -155 1022 -183 1062 -183 c 4
 1074 -183 1086 -195 1086 -207 c 4
 1086 -219 1074 -229 1062 -229 c 4
 1006 -227 954 -193 932 -139 c 5
 930 -137 l 5
 918 -95 914 -55 914 -13 c 4x9f
 914 45 922 107 922 161 c 4
 922 185 920 207 916 231 c 5
 898 293 862 339 796 369 c 5xae80
 770 375 l 5
 754 381 738 383 724 383 c 4
 680 383 648 361 620 331 c 5
 640 301 640 283 644 247 c 4
 654 167 638 -183 664 -183 c 5x9e80
 614 -203 l 5
 600 -155 596 -91 596 -27 c 4
 596 31 598 91 598 143 c 4
 598 181 598 215 592 245 c 5
 592 247 l 5
 584 321 544 361 472 385 c 5
 448 391 l 5
 400 387 388 393 342 359 c 5
 306 319 280 305 276 231 c 5
 286 157 296 61 296 -21 c 4
 296 -73 292 -119 280 -151 c 4
 272 -175 260 -213 228 -213 c 4x4e80
 220 -213 212 -209 208 -205 c 4
 172 -173 164 -117 164 -63 c 4
 164 -19 170 27 172 59 c 5
 172 61 l 5
 178 109 198 211 198 255 c 4
 198 293 158 369 86 369 c 4
 68 369 52 363 30 353 c 5
 30.1538 353.154 30.2249 353.544 30.2249 354.138 c 0
 30.2249 361.26 20 397.615 20 405 c 4
 20 417 90 423 94 423 c 4x2e80
 182.388 423 236.054 351.628 236.054 301.71 c 0
 236.054 300.799 236.036 299.896 236 299 c 5
EndSplineSet
Validated: 1
EndChar

StartChar: r
Encoding: 114 114 3
Width: 709
VWidth: -217
Flags: W
HStem: 351 54<27.0213 146.539> 395 64<388.064 537.965>
VStem: 162 48<-158.001 120.239> 246 48<-153.91 133.125> 514 89<193.001 227.861> 538 65<200.089 236.439> 618 56<194.579 323.685>
LayerCount: 2
Fore
SplineSet
594 117 m 4x76
 558 117 514 147 514 189 c 4x7a
 514 205 530 227 538 229 c 5x76
 538 236 552 241 566 241 c 4
 573 241 580 240 586 237 c 5
 600 225 603 215 603 207 c 4x7a
 603 202 602 197 602 195 c 4
 602 194 602 193 603 193 c 4
 604 193 607 193 610 195 c 5
 616 209 618 225 618 243 c 4
 618 295 592 359 538 377 c 5
 538 381 490 395 466 395 c 4
 464 395 462 395 460 395 c 4x76
 418 395 374 373 342 341 c 1
 306 301 280 287 276 213 c 1
 286 143 294 59 294 -15 c 0
 294 -69 290 -119 276 -153 c 1
 268 -177 254 -213 222 -213 c 0
 214 -213 206 -209 202 -205 c 0
 170 -175 162 -129 162 -85 c 0
 162 -41 170 5 172 41 c 1
 172 43 l 1
 178 91 198 193 198 237 c 0
 198 275 158 351 86 351 c 0
 68 351 52 347 30 337 c 1
 30.1538 337.154 30.2249 337.533 30.2249 338.104 c 0
 30.2249 344.965 20 379.615 20 387 c 0
 20 399 90 405 94 405 c 0xb6
 182.388 405 236.054 333.628 236.054 283.71 c 0
 236.054 282.799 236.036 281.896 236 281 c 1
 278 363 346 459 462 459 c 4
 586 459 674 357 674 237 c 4
 674 221 674 205 670 189 c 5
 670.072 188.278 670.108 187.523 670.108 186.736 c 4
 670.108 165.735 644.629 122.856 608 119 c 4
 604 119 598 117 594 117 c 4x76
234 135 m 1
 218 71 210 -7 210 -83 c 0
 210 -113 212 -139 222 -159 c 1
 234 -133 246 -69 246 5 c 0
 246 47 242 93 234 135 c 1
EndSplineSet
Validated: 1
EndChar

StartChar: u
Encoding: 117 117 4
Width: 861
VWidth: -207
Flags: W
HStem: -227 66<295.31 463.01> -171 52<699.461 819.319> 396 44<20.0087 94.1964>
VStem: 134 56<-71.7812 329.959> 552 48<88.3881 372.921> 636 48<104.022 377.409>
LayerCount: 2
Fore
SplineSet
610 -49 m 5x7c
 568 -131 500 -227 384 -227 c 4
 358 -227 332 -223 308 -211 c 5
 220 -181 146 -97 136 -5 c 4
 134 15 132 30 132 66 c 4
 132 110 134 162 134 208 c 4
 134 274 134 330 122 330 c 5
 108 368 82 396 42 396 c 4
 30 396 20 406 20 418 c 4
 20 430 32 440 44 440 c 4
 100 438 152 404 174 350 c 5
 174 348 l 5
 186 306 190 262 190 220 c 4
 190 164 184 108 184 56 c 4
 184 30 186 19 190 -5 c 5
 190 -7 l 5
 198 -81 236 -121 308 -145 c 5
 334 -151 l 5
 350 -159 368 -161 386 -161 c 4xbc
 428 -161 472 -141 504 -109 c 5
 540 -69 566 -55 570 19 c 5
 560 89 552 162 552 236 c 4
 552 290 556 338 570 372 c 5
 578 396 592 432 624 432 c 4
 632 432 640 428 644 424 c 4
 676 394 684 350 684 306 c 4
 684 262 676 214 674 178 c 5
 674 176 l 5
 668 128 648 41 648 -3 c 4
 648 -41 688 -119 760 -119 c 4
 778 -119 794 -113 816 -103 c 5
 815.846 -103.154 815.775 -103.533 815.775 -104.104 c 0
 815.775 -110.964 826 -145.615 826 -153 c 4
 826 -165 756 -171 752 -171 c 4
 663.612 -171 609.946 -101.557 609.946 -51.7078 c 0
 609.946 -50.7985 609.964 -49.8957 610 -49 c 5x7c
612 86 m 5
 628 150 636 228 636 304 c 4
 636 334 634 358 624 378 c 5
 612 352 600 290 600 216 c 4
 600 174 604 128 612 86 c 5
EndSplineSet
Validated: 1
EndChar

StartChar: a
Encoding: 97 97 5
Width: 774
VWidth: -191
Flags: W
HStem: -224 54<258.889 461.693> -214 76<593.098 740.992> 370 65<224.808 318.832>
VStem: 45 56<-15.5735 250.196> 407 60<59.589 356.519> 591 68<5.85182 256.992>
LayerCount: 2
Fore
SplineSet
735 -127 m 0x7c
 749 -127 759 -149 759 -158 c 0
 759 -162 757 -163 757 -167 c 2
 757 -174 l 2
 757 -201 709 -214 657 -214 c 0x7c
 615 -214 571 -204 545 -188 c 1
 525 -208 433 -224 391 -224 c 2
 381 -224 l 2
 171 -224 73 -99 51 47 c 0
 47 76 45 105 45 134 c 0
 45 292 121 412 291 435 c 1
 295 435 l 2
 313 435 321 420 321 406 c 0
 321 393 315 372 299 370 c 0
 167 352 101 269 101 134 c 0
 101 -41 157 -159 369 -170 c 1
 379 -170 l 2xbc
 453 -170 491 -127 491 -127 c 1
 437 -21 407 141 407 245 c 0
 407 295 413 339 427 371 c 0
 435 391 455 416 481 416 c 0
 489 416 497 413 505 409 c 0
 623 350 659 246 659 145 c 0
 659 96 651 42 637 -7 c 1
 621 -45 593 -102 593 -120 c 0
 593 -136 617 -138 637 -138 c 0
 675 -138 721 -127 735 -127 c 0x7c
485 357 m 1
 473 341 467 302 467 253 c 0
 467 167 487 13 531 -86 c 1
 553 -59 571 -14 585 17 c 1
 589 53 591 91 591 127 c 0
 591 215 569 308 485 357 c 1
EndSplineSet
Validated: 1
EndChar

StartChar: v
Encoding: 118 118 6
Width: 845
VWidth: -212
Flags: W
HStem: -210 60<342.325 432.995> 32 88<642 690.52> 392 44<20.0087 94.1964>
VStem: 134 56<97.7686 325.959> 552 42<169.733 356.978> 636 50<176.541 373.06>
LayerCount: 2
Fore
SplineSet
624 48 m 5
 572 -6 518 -210 386 -210 c 0
 336 -210 258 -136 214 -62 c 8
 159 31 134 158 134 204 c 4
 134 270 134 326 122 326 c 5
 108 364 82 392 42 392 c 4
 30 392 20 402 20 414 c 4
 20 426 32 436 44 436 c 4
 100 434 152 400 174 346 c 5
 174 344 l 5
 186 302 190 258 190 216 c 4
 190 158 240 -90 366 -142 c 0
 376 -146 384 -150 392 -150 c 0
 410 -150 424 -138 434 -128 c 0
 478 -84 538 6 570 90 c 5
 560 160 552 158 552 232 c 4
 552 286 556 334 570 368 c 5
 578 392 592 428 624 428 c 4
 632 428 640 424 644 420 c 4
 676 390 684 346 684 302 c 4
 684 298 686 290 686 282 c 4
 686 246 674 188 650 138 c 5
 650 134 648 128 648 126 c 4
 648 120 650 120 654 120 c 4
 666 120 696 146 706 154 c 13
 758 230 l 29
 810 194 l 29
 738 94 l 22
 710 54 672 32 648 32 c 4
 636 32 626 36 624 48 c 5
612 168 m 5
 628 232 636 224 636 300 c 4
 636 330 634 354 624 374 c 5
 612 348 594 340 594 266 c 4
 594 224 604 210 612 168 c 5
EndSplineSet
Validated: 1
EndChar

StartChar: p
Encoding: 112 112 7
Width: 923
VWidth: -323
Flags: W
HStem: -585 65<265.706 306.57> -118 66<381.071 640.104> 304 60<30.0901 168.31> 358 74<510.601 707.069>
VStem: 170 58<-454.62 -96.5785> 334 46<-221.847 -104 -38 -16.1367> 344 36<-424.821 -340.828 -336.138 -104.021> 818 70<128 166>
LayerCount: 2
Fore
SplineSet
812 128 m 1xd9
 818 166 l 2
 817 166 779 322 708 336 c 1
 702 344 640 358 610 358 c 2
 602 358 l 2
 544 358 488 332 446 292 c 1
 398 242 362 140 358 48 c 1
 364 -10 364 10 376 -36 c 1
 376 -38 l 1
 378 -38 l 1
 408 -46 440 -52 474 -52 c 0
 628 -52 802 -2 812 128 c 1xd9
292 -520 m 1
 321 -507 344 -350 344 -224 c 0xcb
 344 -178 341 -136 334 -106 c 1xcd
 334 -64 308 -8 306 2 c 1
 304 6 l 1
 302 4 l 1
 252 -34 228 -166 228 -288 c 0
 228 -402 248 -510 290 -520 c 1
 292 -520 l 1
488 -118 m 0
 450 -118 408 -118 380 -104 c 1
 380 -154 l 1
 386 -214 394 -278 394 -339 c 0
 394 -378 391 -417 382 -452 c 0
 382 -454 382 -456 382 -458 c 0
 382 -498 341 -585 303 -585 c 0
 299 -585 294 -585 290 -582 c 1
 212 -564 170 -432 170 -280 c 0
 170 -156 198 -20 258 76 c 1
 260 78 l 1
 238 180 206 304 106 304 c 0
 84 304 60 296 34 286 c 1
 32 298 20 338 20 346 c 0
 20 356 112 364 118 364 c 0xed
 230 364 302 210 306 142 c 1
 310 144 l 1
 310 178 336 250 336 250 c 1
 380 342 476 426 606 432 c 1xdd
 772 432 888 304 888 158 c 0
 888 -36 662 -118 488 -118 c 0
EndSplineSet
Validated: 1
EndChar

StartChar: q
Encoding: 113 113 8
Width: 793
VWidth: -241
Flags: W
HStem: -198 57<721.287 741.844> -101 52<182.819 326.605> 401 50<440.311 554.899> 417 52<327.379 536.989>
VStem: 30 52<47.6488 203.087> 522 54<-471.8 -124.471> 532 52<-124.471 137>
LayerCount: 2
Fore
SplineSet
612 -585 m 1xdc
 601 -604 591 -609 579 -609 c 0
 569 -609 557 -605 546 -605 c 2
 544 -605 l 2
 532 -605 520 -591 520 -579 c 0
 520 -547 522 -527 522 -485 c 0xdc
 522 -367 528 -283 528 -159 c 0
 528 -118 532 24 532 103 c 2
 532 137 l 1
 480 25 378 -101 254 -101 c 0
 132 -101 30 15 30 117 c 0
 30 181 71 271 119 323 c 0
 197 407 321 469 437 469 c 0xda
 473 469 507 463 539 451 c 0
 551 447 556 439 556 430 c 0
 556 416 543 401 527 401 c 0xea
 524 401 521 402 517 403 c 0
 493 413 467 417 439 417 c 0
 343 417 231 365 159 289 c 0
 117 245 82 167 82 119 c 0
 82 77 102 37 144 -3 c 1
 182 -33 212 -47 244 -49 c 1
 252 -49 l 2
 390 -49 518 177 526 303 c 0
 527 319 539 326 552 326 c 0
 565 326 579 318 580 303 c 0
 582 233 584 163 584 87 c 0xda
 584 1 582 -227 576 -343 c 2
 566 -527 l 1
 616 -267 624 -201 726 -141 c 0
 727 -141 728 -141 729 -141 c 0
 745 -141 768 -182 768 -199 c 1
 765 -198 761 -198 758 -198 c 0
 673 -198 639 -469 612 -585 c 1xdc
EndSplineSet
Validated: 1
EndChar

StartChar: t
Encoding: 116 116 9
Width: 679
VWidth: -243
Flags: W
HStem: -239 55<354.925 434.56> -226 53.965<345.248 358.992> -30 56<448.746 502.928> 358 59<97.2922 230.144> 473 55<610.094 643.306> 739 20G<326.5 337.5>
VStem: 230 41<143.891 358.81> 232 59<429 632.484> 341 51<453.139 677.865> 503.013 56.064<-98.947 -31.5929>
LayerCount: 2
Fore
SplineSet
231 361 m 5x7ec0
 213 359 197 358 183 358 c 4
 122 358 85 374 31 417 c 4
 24 422 20 431 20 439 c 4
 20 455 33 467 48 467 c 4
 54 467 60 465 65 461 c 4
 106 429 132 417 179 417 c 4
 194 417 212 418 232 420 c 5
 236 562 254 696 301 746 c 4
 308 753 320 759 333 759 c 4
 342 759 351 756 358 749 c 4
 381 726 392 653 392 558 c 4
 392 525 390 489 388 452 c 5
 480 476 527 508 610 527 c 4
 612 527 614 528 616 528 c 4
 630 528 644 517 644 500 c 4
 644 487 636 476 623 473 c 4
 543 454 488 416 384 389 c 5
 381 318 368 168 323 60 c 5
 322 45 321 30 321 16 c 4
 321 -87.7877 346.403 -172.035 358.579 -172.035 c 0x7dc0
 358.721 -172.035 358.861 -172.023 359 -172 c 5
 369 -180 379 -184 389 -184 c 4
 445.515 -184 503.013 -74.8815 503.013 -41.8341 c 0
 503.013 -41.5505 503.009 -41.2724 503 -41 c 5
 503 -41 503.036 -40.8044 503.036 -40.4655 c 0
 503.036 -38.2622 501.533 -30 479 -30 c 4
 478 -30 477 -30 476 -30 c 4
 461 -30 448 -17 448 -2 c 4
 448 15 461 26 478 26 c 4
 525 26 559 -1 559 -43 c 5
 559.052 -44.2205 559.077 -45.4569 559.077 -46.7084 c 0
 559.077 -118.261 475.504 -239 390 -239 c 4xbdc0
 375 -239 359 -235 344 -226 c 5
 252 -222 230 166 230 314 c 4
 230 335 230 351 231 361 c 5x7ec0
344 375 m 5
 338 365 289 372 276 358 c 5
 274 339 271 297 271 254 c 4x3ec0
 271 205 275 156 290 141 c 5
 330 176 317 284 344 375 c 5
332 438 m 5
 339 459 341 495 341 533 c 4
 341 597 334 666 326 679 c 5
 306 627 295 532 291 429 c 5x3dc0
 302 435 326 434 332 438 c 5
EndSplineSet
Validated: 1
EndChar

StartChar: l
Encoding: 108 108 10
Width: 545
VWidth: -243
Flags: W
HStem: -216 57<83.7994 149.324> -209 56<325.589 421.39> 739 20G<277.5 288.5>
VStem: 183 44<212.297 566.467> 280 63<330.88 677.38> 454 56<-115.55 -29.0086>
LayerCount: 2
Fore
SplineSet
510 -43 m 0x7c
 510 -112 467 -209 378 -209 c 0x7c
 324 -209 271 -173 237 -97 c 1
 212 -157 174 -216 120 -216 c 0
 109 -216 98 -213 86 -208 c 0
 64 -198 45 -181 26 -156 c 0
 22 -151 20 -145 20 -139 c 0
 20 -124 32 -111 48 -111 c 0
 57 -111 65 -115 70 -122 c 0
 88 -145 103 -155 112 -158 c 0
 114 -159 115 -159 117 -159 c 0xbc
 137 -159 168 -130 199 -39 c 0
 202 -29 206 -19 209 -8 c 1
 204 16 201 35 198 63 c 0
 190 133 183 305 183 420 c 1
 187 562 205 696 252 746 c 0
 259 753 271 759 284 759 c 0
 293 759 302 756 309 749 c 0
 332 726 343 653 343 558 c 0
 343 525 337 426 335 389 c 1
 323 252 300 108 267 -10 c 1
 270 -21 272 -31 275 -40 c 0
 304 -133 346 -153 378 -153 c 0
 436 -153 454 -71 454 -41 c 1
 454 -41 478 -24 495 -24 c 0
 504 -24 510 -29 510 -43 c 0x7c
279 437 m 1
 282 485 283 529 283 568 c 0
 283 614 281 653 277 679 c 1
 257 627 237 528 233 425 c 1
 227 378 227 251 227 190 c 0
 227 149 231 112 240 89 c 1
 262 140 278 237 278 316 c 0
 278 332 280 380 280 411 c 0
 280 423 280 432 279 437 c 1
EndSplineSet
Validated: 1
EndChar

StartChar: d
Encoding: 100 100 12
Width: 878
VWidth: -323
Flags: W
HStem: -226 63<209.371 402.571> -210 63<739.824 842.785> 271 53<291.6 528.416> 726 65<616.43 657.294>
VStem: 35 57<-43.1975 138.258> 529 60<310.781 655.278> 569 92<14.2614 129.922> 686 67<296.905 660.62>
LayerCount: 2
Fore
SplineSet
435 324 m 0xbb
 473 324 515 324 543 310 c 1
 533 360 l 1
 529 396 529 434 529 471 c 2
 529 545 l 2xbd
 529 584 532 623 541 658 c 0
 541 660 541 662 541 664 c 0
 541 704 582 791 620 791 c 0
 624 791 629 791 633 788 c 1
 711 770 753 638 753 486 c 1
 752 363 738 293 693 188 c 1
 666 131 l 1
 662 108 661 85 661 63 c 0
 661 -28 692 -109 775 -147 c 1
 797 -147 818 -142 844 -132 c 1
 846 -144 858 -184 858 -192 c 0
 858 -202 766 -210 760 -210 c 0x7b
 648 -210 607 -68 603 0 c 1
 603.888 12.4365 l 1
 599.965 -16.6299 587 -44 587 -44 c 1
 543 -136 447 -226 317 -226 c 0
 151 -226 35 -98 35 48 c 0
 35 242 261 324 435 324 c 0xbb
599 312 m 2
 621 202 l 2
 622 202 624 201 625 201 c 0
 659 201 686 376 686 494 c 0
 686 608 675 716 633 726 c 1
 631 726 l 1
 602 713 589 556 589 430 c 0
 589 384 592 342 599 312 c 2
92 79 m 1
 93 29 l 1
 92 28 92 26 92 23 c 0
 92 -3 127 -106 203 -141 c 1
 209 -149 271 -163 301 -163 c 2
 309 -163 l 2
 367 -163 440 -132 481 -91 c 0
 530 -42 569 16 569 108 c 1xbb
 566 152 559 196 547 242 c 1
 547 244 l 1
 545 244 l 1
 515 252 483 271 449 271 c 0
 295 271 102 209 92 79 c 1
EndSplineSet
Validated: 1
EndChar

StartChar: b
Encoding: 98 98 13
Width: 616
VWidth: -241
Flags: W
HStem: -221 52<81.0594 396.734> -202.943 51.943<52.3451 91.3154 91.3848 264.276> 226 54<263.387 427.187>
VStem: 19.9999 57.0001<115.457 600.533> 27.001 52.999<-104.138 46.1848 115.457 314.893 320.632 376.427 393.46 698.506> 527 54<-22.5764 130.577>
LayerCount: 2
Fore
SplineSet
465.344 180.38 m 1xb4
 427.207 210.232 397.298 224.023 365.373 226 c 1
 355.342 226 l 2
 225.125 226 80 85.9014 80 -46 c 0
 80 -57.9443 80.9961 -69.8887 82.9844 -80.8213 c 2
 83.0059 -80.9404 l 1
 82.998 -81.0625 l 2
 81.959 -97.6836 69.3545 -105 56 -105 c 0
 42.6709 -105 28.0498 -96.7832 27.001 -81.0479 c 0xac
 25.002 -11.2783 22.0078 85.623 22 161.188 c 1
 20.037 170.229 19.9999 199.038 19.9999 242.825 c 0
 20 248.045 l 0
 20 335.803 22 474.396 22 608 c 0
 22 650 22 690.992 21 729.975 c 2
 20.9697 731.177 l 1
 22.1582 730.987 l 1
 22.1582 730.987 47.1533 727 58 727 c 2
 60 727 l 2
 72.6934 727 85 712.512 85 700 c 0
 85 667.948 83 647.962 83 606 c 0
 83 488.315 77 438.471 77 314.893 c 2
 77 115.457 l 1
 129.889 225.321 231.788 280 355.342 280 c 0
 478.6 280 581 163.843 581 61.5146 c 0
 581 -2.70117 539.904 -92.6182 491.732 -144.681 c 0
 425.161 -216.055 326.139 -221 227.545 -221 c 2
 171.194 -221 l 2xb4
 134.898 -221 100.745 -214.972 68.666 -202.943 c 0
 56.3604 -198.841 51 -190.431 51 -181 c 0
 51 -166.459 64.3887 -151 81 -151 c 0x74
 82.2666 -151 83.5088 -151.16 84.7891 -151.415 c 0
 86.7549 -151.807 88.8105 -152.42 91.1875 -153.016 c 0
 91.2061 -153.021 91.2236 -153.025 91.2422 -153.03 c 2
 91.3154 -153.048 l 1
 91.3848 -153.077 l 2
 115.233 -163.014 141.101 -167 169.182 -167 c 0
 200.418 -167 233.624 -169 265.784 -169 c 0
 334.166 -169 401.202 -160.995 450.209 -109.31 c 0
 492.098 -65.6289 527 12.0283 527 59.4961 c 0
 527 101.027 507.224 140.614 465.344 180.38 c 1xb4
EndSplineSet
Validated: 1
EndChar

StartChar: h
Encoding: 104 104 14
Width: 572
VWidth: -241
Flags: W
HStem: 259 52<226.631 380.992>
VStem: 30 61.8105<269.268 635.517> 33.8105 64<494.034 760.97> 43.8105 53.4747<-207.701 37.1342> 482.811 51<-122.949 160.586> 492.811 50<-210.703 6.51953>
LayerCount: 2
Fore
SplineSet
33.8105 747 m 0xa0
 34.5488 759.565 50.0391 761.204 62.5117 761.204 c 0
 66.9141 761.204 70.9404 761 73.8105 761 c 2
 75.8105 761 l 2
 87.8105 761 99.8105 747 99.8105 735 c 0
 99.8105 703 97.8105 683 97.8105 641 c 0xa0
 97.8105 523 91.8105 471 91.8105 347 c 0
 91.8105 279 91.8105 211 91.8105 143 c 1
 143.811 255 185.811 311 309.811 311 c 0
 431.811 311 533.811 195 533.811 93 c 0xc8
 533.811 29 538.811 -89 542.811 -206 c 17
 533.964 -207.264 529.509 -210.923 519.104 -210.923 c 0
 513.04 -210.923 504.958 -209.681 492.811 -206 c 9x84
 488.811 -90 482.811 43 482.811 91 c 0
 482.811 133 461.811 173 419.811 213 c 1
 381.811 243 351.811 257 319.811 259 c 1
 311.811 259 l 1
 304.931 260.246 298.185 260.854 291.577 260.854 c 0
 171.478 260.854 97.2852 60.0938 97.2852 -153.854 c 0x98
 97.2852 -164.212 97.459 -174.601 97.8105 -185 c 1xa0
 96.8105 -201 84.8105 -208 71.8105 -208 c 1
 69.5059 -208.672 67.3496 -208.985 65.3359 -208.985 c 0
 49.7871 -208.985 42.8281 -190.328 42.8281 -174.643 c 0
 42.8281 -171.211 43.1611 -167.921 43.8105 -165 c 1x90
 42.2666 -110.972 30 191.468 30 489.899 c 0xc0
 30 578.123 31.0723 665.998 33.8105 747 c 0xa0
EndSplineSet
Validated: 1
EndChar

StartChar: c
Encoding: 99 99 15
Width: 712
VWidth: -217
Flags: W
HStem: -222 57<228.727 484.127> 389 62<256.553 344.251 344.255 441.388>
VStem: 21 60<107.94 207.398> 631.015 57.985<-30.4539 60.9997>
LayerCount: 2
Fore
SplineSet
505.704 196 m 0
 503.535 195.827 501.396 195.742 499.289 195.742 c 0
 474.258 195.742 453.827 207.802 441.557 228.468 c 0
 437.334 234.774 436.38 243.951 436.38 253 c 0
 436.38 262.601 438.166 271.097 441.092 275.025 c 1
 440.305 276.321 440.399 277.186 440.399 278 c 0
 440.399 284.737 459.955 300.845 459.955 300.845 c 0
 466.117 304.933 472.3 306.975 479.44 307.99 c 2
 479.594 308.012 l 1
 479.747 307.986 l 2
 498.039 304.952 506.41 297.786 510.595 290.496 c 0
 510.565 290.479 515.562 279.621 515.562 279.62 c 2
 516.178 278.839 l 1
 517.081 279.739 519.326 282.208 520.717 284.22 c 1
 517.488 298.765 459.46 392.724 351.218 393 c 1
 346.863 390.789 344.655 389.266 344.503 389.166 c 2
 344.251 389 l 1
 343.948 389 l 2
 195.94 389 81 241.537 81 106 c 1
 81 106 81.1035 8.17208 114.816 -39.422 c 0
 182.893 -135.254 230.642 -163.004 361.036 -165 c 1
 545.407 -165 613.072 -67.4602 631.015 44.1705 c 0
 633.146 55.8909 645.766 62 658 62 c 0
 673.205 62 689 53.8632 689 39 c 0
 689 -99.7178 553.36 -221 357.072 -221 c 1
 348.961 -222.009 341.936 -222 333.901 -222 c 0
 190.705 -222 34.0323 -109.567 21.0018 107.94 c 2
 21 107.97 l 1
 21 108 l 2
 21 245.994 111.676 392.598 256.54 432.492 c 1
 256.54 432.586 l 1
 255.662 433.459 l 1
 256.54 433.734 l 1
 256.54 434 l 1
 257.391 434 l 1
 292.596 444.999 328.812 451 364.042 451 c 0
 442.658 451 513.366 421.887 555.798 353.511 c 0
 563.81 339.555 572.841 325.565 577.906 309.453 c 0
 577.922 309.402 577.938 309.35 577.954 309.298 c 2
 578 309.153 l 1
 578 309 l 2
 578 308.842 578.366 309.067 579.19 306.926 c 0
 579.788 305.862 580.238 302.311 580.238 297.093 c 0
 580.238 270.577 568.619 201.013 505.704 196 c 0
EndSplineSet
Validated: 1
EndChar

StartChar: i
Encoding: 105 105 16
Width: 541
VWidth: -176
Flags: W
HStem: -208 38<317.706 424.432> -185 38.78<76.2719 172.751> 421.7 160<229.629 341.824>
VStem: 183 42<-23.8193 219.956> 202.5 167<447.982 555.418> 276 64<48.1702 279> 453 54<-144.567 -81.3459>
LayerCount: 2
Fore
SplineSet
202.5 501.7 m 0x2a
 202.5 545.7 239.5 581.7 285.5 581.7 c 0
 331.5 581.7 369.5 545.7 369.5 501.7 c 0
 369.5 457.7 331.5 421.7 285.5 421.7 c 0
 239.5 421.7 202.5 457.7 202.5 501.7 c 0x2a
276 278 m 1x36
 276 280 l 1
 274 278 l 2
 254 241 235 214 231 140 c 1
 225 106 225 94 225 50 c 0
 225 21 229 -5 238 -22 c 2
 239 -24 l 1
 239 -22 l 1
 276.527 7.2734 323.775 216.529 276 278 c 1x36
493 -78 m 0
 502 -78 507 -81 507 -91 c 0
 507 -140 464 -208 376 -208 c 0xb6
 323 -208 271 -183 237 -129 c 2
 236 -127 l 1
 235 -129 l 2
 210 -172 173 -185 119 -185 c 0
 108 -185 97 -184 85 -180 c 0
 63 -173 45 -161 26 -143 c 0
 22 -140 20 -135 20 -131 c 0
 20 -121 31 -112 47 -112 c 0
 56 -112 63 -115 68 -120 c 2
 86 -137 102 -144 111 -146 c 0
 113 -147 114 -146 116 -146 c 0
 119.544 -146 123.465 -146.22 127.691 -146.22 c 0x76
 147.31 -146.22 173.494 -141.481 199 -88 c 0
 202 -81 206 -74 209 -66 c 2
 209 -65 l 2
 204 -48 201 -46 198 -26 c 0
 190 24 183 55 183 137 c 1
 187 239 205 291 251 326 c 0
 258 331 269 335 282 335 c 0
 291 335 300 333 307 328 c 0
 329 312 340 259 340 191 c 0
 340 167 334 142 332 115 c 1
 319 19 311 -7 265 -67 c 2
 264 -67 l 1
 265 -67 l 2
 268 -75 269 -83 272 -89 c 0
 301 -156 344 -170 376 -170 c 0xb6
 435 -170 453 -112 453 -90 c 1
 457 -88 478 -78 493 -78 c 0
EndSplineSet
Validated: 37
EndChar

StartChar: period
Encoding: 46 46 17
Width: 239
VWidth: -7
Flags: W
HStem: -208 160<63.129 175.324>
VStem: 36 167<-181.718 -74.2823>
LayerCount: 2
Fore
SplineSet
36 -128 m 4
 36 -84 73 -48 119 -48 c 4
 165 -48 203 -84 203 -128 c 4
 203 -172 165 -208 119 -208 c 4
 73 -208 36 -172 36 -128 c 4
EndSplineSet
Validated: 1
EndChar

StartChar: colon
Encoding: 58 58 18
Width: 239
VWidth: -7
Flags: W
HStem: -208 160<63.129 175.324> 100 160<63.129 175.324>
VStem: 36 167<-181.718 -74.2823 126.282 233.718>
LayerCount: 2
Fore
SplineSet
36 180 m 4
 36 224 73 260 119 260 c 4
 165 260 203 224 203 180 c 4
 203 136 165 100 119 100 c 4
 73 100 36 136 36 180 c 4
36 -128 m 0
 36 -84 73 -48 119 -48 c 0
 165 -48 203 -84 203 -128 c 0
 203 -172 165 -208 119 -208 c 0
 73 -208 36 -172 36 -128 c 0
EndSplineSet
Validated: 1
EndChar

StartChar: w
Encoding: 119 119 19
Width: 1162
VWidth: -212
Flags: W
HStem: -210.14 60.14<343.259 431.744> -202.158 60.158<704.906 790.149> 46 82<963.001 1005.87> 392 44<20.0087 94.1964>
VStem: 134 56<97.7686 325.959> 499 56<152.385 304.488> 867 39<177.347 362.537> 948 53<184.541 381.06>
LayerCount: 2
Fore
SplineSet
924 176 m 1x3f
 940 240 948 232 948 308 c 0
 948 338 946 362 936 382 c 1
 924 356 906 348 906 274 c 1
 907 230 919 201 924 176 c 1x3f
601 63 m 0
 626 -4 670 -111 725 -134 c 0
 735 -138 743 -142 751 -142 c 0
 769 -142 783 -130 793 -120 c 1
 850 -85 870 10 885 98 c 1
 875 168 867 166 867 240 c 0
 867 294 871 342 885 376 c 1
 893 400 907 436 939 436 c 0
 947 436 955 432 959 428 c 0
 991 398 999 354 999 310 c 0
 999 306 1001 298 1001 290 c 0
 1001 254 989 196 965 146 c 1
 965 142 963 136 963 134 c 0
 963 128 965 128 969 128 c 0
 981 128 1011 154 1021 162 c 1
 1073 238 l 1
 1125 202 l 1
 1053 102 l 2
 1025 62 996 46 972 46 c 0
 969 46 965.562 45.875 962.062 45.875 c 0
 951.562 45.875 940.5 47 939 56 c 1
 927.03 -1.85613 892.174 -202.004 746.092 -202.004 c 0
 745.729 -202.004 745.365 -202.002 745 -202 c 1
 743.649 -202.106 742.287 -202.158 740.914 -202.158 c 0x7f
 677.273 -202.158 591.599 -90.2055 573 -7 c 1
 571 -4 570 -1 568 2 c 1
 562.112 -83.3687 490.751 -210.14 391.708 -210.14 c 0xbf
 389.815 -210.14 387.913 -210.094 386 -210 c 1
 336 -210 258 -136 214 -62 c 0
 159 31 134 158 134 204 c 0
 134 270 134 326 122 326 c 1
 108 364 82 392 42 392 c 0
 30 392 20 402 20 414 c 0
 20 426 32 436 44 436 c 0
 100 434 152 400 174 346 c 1
 174 344 l 1
 186 302 190 258 190 216 c 0
 190 158 240 -90 366 -142 c 0x7f
 376 -146 384 -150 392 -150 c 0xbf
 410 -150 424 -138 434 -128 c 1
 485 -97 523 12 536 70 c 1
 507 146 499 225 499 259 c 0
 499 292 513 305.5 527 305.5 c 0
 541 305.5 555 292 555 271 c 1
 554 248 583 112 601 63 c 0
EndSplineSet
Validated: 33
EndChar

StartChar: e
Encoding: 101 101 20
Width: 712
VWidth: -217
Flags: W
HStem: -222 57<233.18 483.946> 70.9475 55.7377<108.337 334.484> 389 62<258.642 441.238>
VStem: 21 558.831<108 293.35> 631 58<-30.5537 61.0112>
LayerCount: 2
Fore
SplineSet
81 102 m 1
 81 83 86 3 115 -39 c 0
 183 -135 231 -163 361 -165 c 1
 545 -165 613 -68 631 44 c 0
 633 56 646 62 658 62 c 0
 673 62 689 54 689 39 c 0
 689 -100 553 -221 357 -221 c 1
 349 -222 342 -222 334 -222 c 0
 191 -222 34 -110 21 108 c 1
 21 246 112 392 257 432 c 1
 257 433 l 1
 256 433 l 1
 257 434 l 1
 292 445 329 451 364 451 c 0
 443 451 514 422 556 354 c 0
 564 340 573 325 578 309 c 1
 578.953 307.093 579.831 301.349 579.831 293.35 c 0
 579.831 273.117 574.215 238.458 550 215 c 1
 473.563 127.946 360.057 70.9475 236.783 70.9475 c 0
 185.88 70.9475 133.312 80.666 81 102 c 1
512 252 m 1
 513.672 264.541 515.497 275.683 516 279 c 0
 517 280 520 282 521 284 c 1
 518 299 459 393 351 393 c 1
 347 391 345 389 345 389 c 1
 344 389 l 2
 214 389 110 276 86 157 c 1
 135.001 135.613 180.117 126.685 222.183 126.685 c 0
 335.499 126.685 426.675 191.47 512 252 c 1
EndSplineSet
Validated: 1
EndChar

StartChar: s
Encoding: 115 115 21
Width: 651
VWidth: -33
Flags: W
HStem: -340.619 54.9571<468.453 555.803> -215.858 53.8576<185.006 304> -41.9039 55.0992<87.3583 210.386> 478.317 54.0612<188.617 386.231>
VStem: 24.8085 60.0294<-101.114 -52.1262> 46.3683 62.1023<297.194 414.701> 449 69.1703<392.751 436.942> 558.565 62.7106<-84.4514 19.2443>
LayerCount: 2
Fore
SplineSet
556 -303 m 0xf7
 556.88 -305.639 557.295 -308.279 557.295 -310.858 c 0
 557.295 -322.938 548.185 -333.704 535 -337 c 0
 525.221 -339.473 515.796 -340.619 506.704 -340.619 c 0
 434.913 -340.619 383.942 -269.143 344 -215 c 1
 333.901 -215.577 323.869 -215.858 313.933 -215.858 c 0
 186.13 -215.858 74.1145 -169.455 37 -111 c 1
 28.8287 -98.743 24.8085 -85.7371 24.8085 -72.9424 c 0xfb
 24.8085 -45.499 43.3035 -19.027 79 -3 c 0
 104.447 8.26929 128.407 13.1953 150.964 13.1953 c 0
 252.511 13.1953 325.633 -86.6316 378 -157 c 1
 435 -148 489 -126 536 -85 c 0
 540 -82 543 -79 546 -75 c 0
 554.399 -64.3617 558.565 -52.0776 558.565 -38.6522 c 0
 558.565 -4.12208 531.003 37.9574 477 79 c 1
 433 111 377 138 319 154 c 0
 134.069 204.522 46.3683 255.045 46.3683 357.539 c 0
 46.3683 362.566 46.5793 367.717 47 373 c 0
 54.6628 467.827 171.506 532.378 291.193 532.378 c 0
 296.46 532.378 301.732 532.253 307 532 c 0
 312 532 316 531 321 531 c 0
 414.811 521.228 518.17 463.711 518.17 420.035 c 0
 518.17 398.794 495.646 390 482 390 c 0
 465 390 449 401 449 417 c 0
 449 438 346 476 303 478 c 0
 298.706 478.213 294.436 478.317 290.195 478.317 c 0
 194.668 478.317 113.787 425.492 109 369 c 0
 108.654 364.555 108.471 360.251 108.471 356.074 c 0
 108.471 287.896 157.256 253.883 341 203 c 0
 408 184 471 153 521 116 c 0
 539.391 101.287 556.876 86.8744 572 69 c 0
 601.643 34.8828 621.276 -3.3011 621.276 -40.3028 c 0
 621.276 -69.4584 609.086 -97.8801 580 -123 c 1
 532 -166 472 -192 414 -205 c 1
 457.787 -261.558 489.924 -285.662 511.169 -285.662 c 0
 513.213 -285.662 515.157 -285.439 517 -285 c 0
 519.985 -284.254 523.04 -283.89 526.067 -283.89 c 0
 539.264 -283.89 551.933 -290.798 556 -303 c 0xf7
96 -57 m 0
 88.003 -61.7982 84.8379 -65.7437 84.8379 -70.3519 c 0
 84.8379 -74.3872 87.2651 -78.9307 91 -85 c 0
 111 -117 200 -159 304 -162 c 1
 248.744 -89.1258 201.824 -41.9039 148.862 -41.9039 c 0
 135.689 -41.9039 122.142 -44.8253 108 -51 c 0
 103 -53 99 -55 96 -57 c 0
EndSplineSet
Validated: 1
EndChar

StartChar: S
Encoding: 83 83 22
Width: 690
VWidth: -86
Flags: W
HStem: -370.546 62.2442<509.526 596.977> -215.313 61.5209<207.315 329.547> 2.59831 62.6712<91.1756 214.484> 658.773 61.535<208.473 400.509>
VStem: 19.1376 61.4871<-73.9143 -11.7469> 42.5084 63.2759<428.475 574.376> 485.926 70.5285<551.695 581.1> 606.577 64.1834<-51.8727 73.3199>
LayerCount: 2
Fore
SplineSet
577.036 -366.204 m 0xf7
 566.567 -369.168 556.477 -370.546 546.74 -370.546 c 0
 469.225 -370.546 414.151 -283.23 368.969 -214.126 c 1
 357.475 -214.925 346.048 -215.313 334.724 -215.313 c 0
 195.991 -215.313 72.7042 -157.143 32.0752 -85.4053 c 0
 23.4855 -70.2393 19.1376 -54.3322 19.1376 -38.7426 c 0xfb
 19.1376 -6.05264 38.2555 25.2409 77.4697 45.376 c 0
 105.22 59.2097 131.291 65.2695 155.802 65.2695 c 0
 266.546 65.2695 345.448 -58.4267 403.446 -147.732 c 1
 466.261 -136.144 527.889 -108.726 580.509 -57.1865 c 0
 598.013 -40.2561 606.577 -19.3493 606.577 4.01429 c 0
 606.577 48.678 575.282 102.32 515.334 154.323 c 0
 467.314 194.72 405.313 229.492 341.537 249.654 c 0
 138.703 313.939 42.5084 376.416 42.5084 503.07 c 0
 42.5084 509.368 42.7463 515.825 43.2207 522.448 c 0
 51.3565 639.977 178.972 720.308 309.971 720.308 c 0
 315.521 720.308 321.077 720.164 326.63 719.872 c 0
 433.262 714.279 556.455 635.894 556.455 582.18 c 0
 556.455 558.896 533.563 548.165 519.214 548.165 c 0
 501.33 548.165 485.926 561.685 485.926 578.938 c 0
 485.926 580.96 486.034 581.101 486.034 581.101 c 1
 461.466 606.958 390.101 654.897 322.853 658.426 c 0
 318.419 658.659 314.003 658.773 309.613 658.773 c 0
 203.362 658.773 111.51 591.833 106.418 518.314 c 0
 106.002 512.5 105.784 506.869 105.784 501.407 c 0
 105.784 413.067 162.825 368.809 363.748 305.157 c 0
 437.178 281.896 506.227 242.986 560.475 196.835 c 0
 565.553 192.336 570.528 187.733 575.387 183.037 c 0
 629.591 130.635 670.76 64.2674 670.76 1.11083 c 0
 670.76 -34.6889 657.532 -69.4571 625.952 -100.065 c 0
 571.448 -154.608 505.968 -187.177 439.876 -203.17 c 1
 489.066 -275.362 525.635 -308.302 551.245 -308.302 c 0
 553.85 -308.302 556.341 -307.961 558.721 -307.286 c 0
 561.715 -306.408 564.764 -305.987 567.778 -305.987 c 0
 581.162 -305.987 593.864 -314.281 598.127 -327.626 c 0
 599.088 -330.635 599.541 -333.671 599.541 -336.653 c 0
 599.541 -350.006 590.444 -362.272 577.036 -366.204 c 0xf7
87.5693 -55.7275 m 0
 111.245 -97.5342 211.419 -151.73 329.547 -153.792 c 1
 267.987 -61.265 214.329 2.59831 152.999 2.59831 c 0
 138.207 2.59831 122.969 -1.11653 107.066 -9.04004 c 0
 87.7318 -18.968 80.6247 -26.9973 80.6247 -36.2893 c 0
 80.6247 -42.0364 83.3434 -48.2665 87.5693 -55.7275 c 0
EndSplineSet
Validated: 1
EndChar

StartChar: f
Encoding: 102 102 23
Width: 839
VWidth: 0
Flags: W
HStem: 55.5654 46.5664<278.6 470.304 518.155 727.931> 74.9893 45.584<277.016 467.49> 84.79 46.0938<619.26 785.618> 114.254 46.7178<40.4976 85.8632> 896.674 47.2383<581.716 673.451>
VStem: 455.513 48.0732<269.395 439.579 487.582 512.716 566.934 733.621>
LayerCount: 2
Fore
SplineSet
48.8037 115.37 m 0x8c
 41.3535 114.254 l 1
 34.5576 160.972 l 1x9c
 41.9434 162.079 l 0
 95.417 170.095 291.341 329.994 450.224 503.835 c 0
 451.727 505.477 454.186 508.182 455.971 510.146 c 1
 456.081 515.766 456.13 517.783 456.239 522.268 c 0
 461.027 717.644 484.868 946.652 623.091 943.912 c 0
 642.92 943.52 663.4 937.809 684.104 927.395 c 0
 746.317 895.819 727.613 819.482 694.149 751.826 c 0
 656.962 677.483 589.38 588.534 511.162 500.306 c 0
 508.995 497.861 506.003 494.508 503.679 491.907 c 1
 503.623 487.245 503.613 486.4 503.587 483.722 c 0
 502.062 329.939 514.048 176.186 518.363 102.696 c 1
 607.153 106.116 693.369 118.16 777.271 130.884 c 0
 784.706 132.011 l 1
 791.686 85.9121 l 1
 784.296 84.79 l 0x2c
 700.12 72.0244 607.205 59.2402 517.983 55.9619 c 1
 521.458 -28.9951 532.362 -487.33 415.786 -565.626 c 0
 366.702 -599.062 320.353 -555.764 293.307 -516.888 c 0
 243.834 -445.773 180.905 -288.571 235.646 -251.682 c 0
 277.022 -223.8 320.498 -281.804 368.647 -352.976 c 0
 372.859 -359.196 l 1
 332.943 -385.418 l 1
 328.694 -379.139 l 0
 299.848 -336.5 276.685 -310.888 264.518 -300.049 c 1
 265.639 -360.886 331.341 -518.175 375.412 -529.43 c 0
 382.623 -531.27 407.83 -528.945 431.848 -436.606 c 0
 454.854 -349.639 471.305 -192.124 471.873 55.5654 c 1x8c
 404.781 55.5645 343 60.4141 276.428 73.5146 c 0
 268.931 74.9893 l 1
 278.482 120.573 l 1x4c
 285.978 119.098 l 0
 347.695 106.954 410.32 102.237 470.304 102.132 c 1
 466.262 169.38 456.405 301.867 455.513 439.579 c 1
 299.37 274.323 129.284 127.437 48.8037 115.37 c 0x8c
651.92 772.952 m 0
 688.004 845.037 681.5 875.869 663.004 885.192 c 0
 647.19 892.981 633.949 896.273 623.13 896.674 c 0
 555.005 899.199 515.473 762.13 505.856 566.934 c 1
 570.215 642.92 622.126 714.479 651.92 772.952 c 0
EndSplineSet
Validated: 524321
EndChar
